<?xml version="1.0" encoding="UTF-8"?>
<svg id="_レイヤー_2" data-name="レイヤー 2" xmlns="http://www.w3.org/2000/svg" viewBox="0 0 16.97 18.24">
  <defs>
    <style>
      .cls-1 {
        fill: #03632f;
      }
    </style>
  </defs>
  <g id="contents">
    <g>
      <path class="cls-1" d="M8.49,18.24c-.29,0-.56-.12-.75-.34L.25,9.42c-.37-.41-.33-1.05.09-1.41.41-.37,1.05-.33,1.41.09l6.74,7.64,6.74-7.64c.37-.41,1-.45,1.41-.09.41.37.45,1,.09,1.41l-7.49,8.49c-.19.22-.46.34-.75.34Z"/>
      <path class="cls-1" d="M8.49,18.24c-.55,0-1-.45-1-1V1c0-.55.45-1,1-1s1,.45,1,1v16.24c0,.55-.45,1-1,1Z"/>
    </g>
  </g>
</svg>