<?xml version="1.0" encoding="UTF-8"?>
<svg id="_レイヤー_2" data-name="レイヤー 2" xmlns="http://www.w3.org/2000/svg" viewBox="0 0 9.12 7.49">
  <defs>
    <style>
      .cls-1 {
        fill: #fff;
      }
    </style>
  </defs>
  <g id="contents">
    <g>
      <path class="cls-1" d="M4.38,7.49c-.15,0-.3-.07-.4-.2-.17-.22-.13-.53.09-.7l3.72-2.85L4.08.9c-.22-.17-.26-.48-.09-.7.17-.22.48-.26.7-.09l4.24,3.24c.12.09.2.24.2.4s-.07.3-.2.4l-4.24,3.24c-.09.07-.2.1-.3.1Z"/>
      <path class="cls-1" d="M8.62,4.24H.5c-.28,0-.5-.22-.5-.5s.22-.5.5-.5h8.12c.28,0,.5.22.5.5s-.22.5-.5.5Z"/>
    </g>
  </g>
</svg>